HIERARCHY
ROOT Hips
{
	OFFSET -3.958830 18.904000 13.208200
	CHANNELS 6 Xposition Yposition Zposition Zrotation Yrotation Xrotation 
	JOINT LHipJoint
	{
		OFFSET 0.000000 0.000000 0.000000
		CHANNELS 3 Zrotation Yrotation Xrotation
		JOINT LeftUpLeg
		{
			OFFSET 1.800000 -1.400000 0.085000
			CHANNELS 3 Zrotation Yrotation Xrotation
			JOINT LeftLeg
			{
				OFFSET 2.215000 -6.000000 0.000000
				CHANNELS 3 Zrotation Yrotation Xrotation
				JOINT LeftFoot
				{
					OFFSET 2.500000 -6.900000 0.000000
					CHANNELS 3 Zrotation Yrotation Xrotation
					JOINT LeftToeBase
					{
						OFFSET 0.200000 -0.500000 1.950000
						CHANNELS 3 Zrotation Yrotation Xrotation
						End Site
						{
							OFFSET 0.000000 0.000000 0.000000
						}
					}
				}
			}
		}
	}
	JOINT RHipJoint
	{
		OFFSET 0.000000 0.000000 0.000000
		CHANNELS 3 Zrotation Yrotation Xrotation
		JOINT RightUpLeg
		{
			OFFSET -1.800000 -1.400000 0.085000
			CHANNELS 3 Zrotation Yrotation Xrotation
			JOINT RightLeg
			{
				OFFSET -2.215000 -6.000000 0.000000
				CHANNELS 3 Zrotation Yrotation Xrotation
				JOINT RightFoot
				{
					OFFSET -2.500000 -6.900000 0.000000
					CHANNELS 3 Zrotation Yrotation Xrotation
					JOINT RightToeBase
					{
						OFFSET -0.200000 -0.500000 1.950000
						CHANNELS 3 Zrotation Yrotation Xrotation
						End Site
						{
							OFFSET 0.000000 0.000000 0.000000
						}
					}
				}
			}
		}
	}
	JOINT LowerBack
	{
		OFFSET 0.000000 0.000000 0.000000
		CHANNELS 3 Zrotation Yrotation Xrotation
		JOINT Spine
		{
			OFFSET -0.087000 1.940000 -0.288900
			CHANNELS 3 Zrotation Yrotation Xrotation
			JOINT Spine1
			{
				OFFSET 0.000000 1.950000 0.060000
				CHANNELS 3 Zrotation Yrotation Xrotation
				JOINT Neck
				{
					OFFSET 0.000000 0.000000 0.000000
					CHANNELS 3 Zrotation Yrotation Xrotation
					JOINT Neck1
					{
						OFFSET 0.000000 1.600000 0.340000
						CHANNELS 3 Zrotation Yrotation Xrotation
						JOINT Head
						{
							OFFSET 0.000000 1.667000 -0.240000
							CHANNELS 3 Zrotation Yrotation Xrotation
							End Site
							{
								OFFSET 0.000000 0.000000 0.000000
							}
						}
					}
				}
				JOINT LeftShoulder
				{
					OFFSET 0.000000 0.000000 0.000000
					CHANNELS 3 Zrotation Yrotation Xrotation
					JOINT LeftArm
					{
						OFFSET 2.700000 1.550000 -0.730000
						CHANNELS 3 Zrotation Yrotation Xrotation
						JOINT LeftForeArm
						{
							OFFSET 5.450000 0.000000 0.000000
							CHANNELS 3 Zrotation Yrotation Xrotation
							JOINT LeftHand
							{
								OFFSET 3.450000 0.000000 0.000000
								CHANNELS 3 Zrotation Yrotation Xrotation
								JOINT LeftHandIndex1
								{
									OFFSET 0.750000 0.000000 0.000000
									CHANNELS 3 Zrotation Yrotation Xrotation
									End Site
									{
										OFFSET 0.000000 0.000000 0.000000
									}
								}
							}
						}
					}
				}
				JOINT RightShoulder
				{
					OFFSET 0.000000 0.000000 0.000000
					CHANNELS 3 Zrotation Yrotation Xrotation
					JOINT RightArm
					{
						OFFSET -2.700000 1.550000 -0.730000
						CHANNELS 3 Zrotation Yrotation Xrotation
						JOINT RightForeArm
						{
							OFFSET -5.450000 0.000000 0.000000
							CHANNELS 3 Zrotation Yrotation Xrotation
							JOINT RightHand
							{
								OFFSET -3.450000 0.000000 0.000000
								CHANNELS 3 Zrotation Yrotation Xrotation
								JOINT RightHandIndex1
								{
									OFFSET -0.750000 0.000000 0.000000
									CHANNELS 3 Zrotation Yrotation Xrotation
									End Site
									{
										OFFSET 0.000000 0.000000 0.000000
									}
								}
							}
						}
					}
				}
			}
		}
	}
}
MOTION
Frames: 8
Frame Time: 0.016667
-1.854640 17.129290 -1.727100 1.598922 -63.080600 -7.331576 -15.339867 13.952983 3.157254 9.506762 -4.889012 -2.608625 -11.203828 14.051945 40.386345 1.032528 8.721631 1.713420 0.980790 0.857350 0.706880 18.106942 -10.184868 2.717428 -4.884216 0.828333 -37.248203 -8.435134 -2.284377 26.639034 -0.178603 -2.883373 3.488354 0.361980 -0.167880 0.019310 -3.147829 -3.934215 -7.328470 4.171699 -9.727422 11.869022 -6.486130 -9.222662 8.697491 0.524247 -3.121827 -8.148199 -10.595322 6.356982 41.068683 -1.810750 5.876720 -2.791200 -13.778499 -2.697917 1.020315 -22.854467 -8.857517 -3.191452 17.082305 -13.679838 -2.079747 -3.374702 3.200641 0.273150 -0.039120 0.108340 0.426770 13.044405 1.767795 4.983160 57.570721 -6.317110 -13.823115 46.598422 38.532557 9.206725 2.239904 -2.176827 0.124670 -0.086650 -0.726630 -0.115320 
-1.939310 17.103740 -1.738000 1.709506 -62.421344 -6.820888 -15.344950 13.915159 3.166090 9.557637 -4.721076 -3.261743 -11.430988 14.553214 41.217170 1.104820 8.925108 1.672504 0.903300 0.764970 0.646460 18.112200 -10.151815 2.731384 -5.249590 1.050914 -37.339136 -8.220302 -2.385123 27.189865 -0.144422 -2.986173 3.477092 0.309530 -0.121580 0.014250 -3.181090 -3.902344 -7.319239 4.759841 -9.843295 11.286104 -6.769727 -9.323855 7.959616 0.867522 -3.453473 -8.184606 -10.722132 6.283625 39.158971 -2.481090 5.989530 -0.984680 -12.687807 -0.704194 1.101400 -26.421252 -6.351433 -3.287931 17.414506 -10.285842 -1.645815 -3.437563 3.205625 0.243360 -0.003520 0.058580 0.420880 11.228367 0.164186 4.925887 59.126320 -7.620595 -14.309738 51.084468 38.418668 10.559647 2.234317 -2.226708 0.102400 -0.098630 -0.696050 -0.106650 
-2.005650 17.107980 -1.750510 1.568641 -61.862517 -6.587455 -15.309998 13.959784 3.185637 9.350445 -4.207305 -3.420652 -11.238659 14.748344 41.482736 1.187519 8.928057 1.683064 0.836230 0.685080 0.616330 18.116993 -10.209476 2.790880 -5.439062 1.384986 -36.959773 -8.059488 -2.434979 27.935354 -0.146563 -3.051412 3.474255 0.228350 -0.134930 0.013960 -3.201481 -3.828047 -7.412203 5.145020 -9.579337 12.126546 -6.477657 -9.185754 6.349461 1.383597 -3.610849 -8.445557 -10.858559 6.027347 38.934727 -3.509810 6.253110 -0.073930 -12.447175 1.256983 1.226788 -30.013573 -1.955255 -4.516497 17.034778 -12.327836 -1.691485 -3.397430 3.200301 0.240700 -0.015810 0.065060 0.402030 10.027320 -1.362932 5.104627 60.365260 -9.610986 -15.246827 55.637379 39.830201 12.700201 2.252174 -2.242287 0.118360 -0.124750 -0.676920 -0.101340 
-2.068630 17.121850 -1.760170 0.591596 -60.835684 -5.254869 -15.269424 14.011000 3.195244 9.330821 -3.788155 -4.072611 -10.729886 14.713123 41.625260 1.211865 8.865871 1.714456 0.763070 0.574840 0.602420 18.116581 -10.276854 2.885180 -5.298575 1.873786 -36.406642 -7.478451 -2.511144 28.006417 -0.120471 -3.026790 3.502982 0.144940 -0.144300 0.007330 -3.199525 -3.714432 -7.522233 5.626832 -8.986118 13.050049 -5.511689 -8.763950 3.975556 1.914087 -3.297844 -8.330115 -9.986198 4.956341 38.526468 -4.832410 6.326750 1.256670 -12.338892 3.945224 0.831617 -33.026241 2.221402 -6.129781 14.926551 -16.988905 -1.849924 -3.349588 3.184207 0.246830 -0.019980 0.050090 0.372030 8.971496 -3.896655 5.174891 61.037716 -12.371965 -15.980625 60.066924 41.147333 15.060700 2.258909 -2.258939 0.109710 -0.154400 -0.655030 -0.116640 
-2.119080 17.147790 -1.778510 -0.095405 -59.382364 -4.314881 -15.236441 14.092727 3.252321 9.339354 -3.452629 -4.866154 -10.886056 14.692782 40.895507 1.178045 8.728126 1.747296 0.701710 0.468800 0.604460 18.102966 -10.325009 2.941057 -5.363432 2.180204 -35.608742 -6.704833 -2.657322 27.735320 -0.108668 -2.943320 3.544113 0.064730 -0.178790 0.003870 -3.012646 -3.735615 -7.695349 5.021700 -8.092157 14.441592 -3.820605 -8.036055 1.393486 2.490705 -2.617159 -8.273468 -8.801248 3.697070 39.461861 -6.153600 6.261670 1.449480 -12.448555 6.351912 0.325811 -36.003334 5.840021 -8.089059 13.209219 -22.413231 -2.140219 -3.290662 3.146733 0.300010 -0.046720 0.060870 0.329260 8.173607 -6.321422 5.434020 61.823637 -15.489893 -17.095813 63.527771 42.770073 17.301099 2.248090 -2.222711 0.095720 -0.170870 -0.619080 -0.153100 
-2.156630 17.171940 -1.788640 -0.302178 -57.045109 -3.471176 -15.239017 14.148835 3.339520 9.152640 -3.430361 -6.295455 -11.423789 14.719091 40.178339 1.148546 8.619412 1.772968 0.638730 0.370930 0.593440 18.072365 -10.324384 2.930204 -6.000417 2.191463 -34.914650 -5.570261 -2.960895 27.300986 -0.090899 -2.875062 3.572501 -0.004580 -0.189610 0.002810 -2.692465 -3.861538 -7.847912 3.486069 -7.140738 15.583011 -1.499169 -7.225207 -1.319538 2.877490 -1.706709 -7.858643 -7.077518 2.451689 39.665711 -6.612620 6.006320 1.524720 -12.486784 9.285147 -0.401817 -38.700020 9.004235 -10.023010 9.978671 -27.911909 -2.048874 -3.255362 3.135575 0.332150 -0.060310 0.058310 0.290460 7.811261 -9.458777 5.431419 61.641079 -19.210340 -17.991790 67.198177 44.016352 19.575526 2.228860 -2.187760 0.082590 -0.177340 -0.575340 -0.179320 
-2.180320 17.203770 -1.791290 -0.875865 -53.682353 -2.121383 -15.247265 14.143166 3.435395 9.423397 -3.447662 -8.224583 -12.440916 14.811120 38.928425 1.107664 8.447192 1.797613 0.586290 0.295610 0.584800 18.037906 -10.343043 2.901606 -6.947841 2.139168 -34.040266 -3.915006 -3.413917 26.313500 -0.073090 -2.776000 3.613247 -0.070260 -0.220620 0.009440 -2.458420 -3.841665 -7.978374 2.472254 -6.341527 16.341305 0.343791 -6.431911 -3.774139 3.486537 -0.549705 -7.606033 -4.758663 1.205316 40.224808 -7.347910 6.116750 1.371140 -11.538719 12.305509 -0.765411 -42.818468 12.205110 -12.406326 8.181653 -34.180409 -2.074359 -3.208829 3.148623 0.364010 -0.078120 0.072040 0.253060 5.946083 -12.768970 5.352359 62.279596 -21.047062 -17.921285 69.910945 43.940418 21.192066 2.219501 -2.157281 0.085790 -0.202150 -0.541590 -0.202830 
-2.183270 17.229150 -1.794080 -1.018089 -48.984674 -0.756502 -15.278872 14.058403 3.513883 9.321303 -3.702803 -10.871463 -13.086137 14.605277 37.862610 1.095505 8.197104 1.875392 0.528710 0.251250 0.539940 17.999973 -10.376979 2.826980 -8.690742 1.757955 -33.238671 -1.858232 -3.986668 24.768423 -0.044681 -2.703595 3.677595 -0.123020 -0.198540 0.010130 -2.291903 -3.700219 -8.017991 1.227752 -5.676900 16.091684 2.156258 -5.830943 -4.776689 3.696422 0.584444 -7.702980 -2.326868 -0.017304 39.819590 -7.455540 5.977070 1.907250 -9.169132 14.609933 -0.387510 -47.583287 14.347377 -14.677585 4.044409 -40.348988 -1.282678 -3.169005 3.190632 0.342650 -0.062580 0.077730 0.262970 3.333902 -15.356424 5.263837 63.680619 -21.205027 -17.498077 71.567091 43.975582 22.520025 2.219427 -2.140406 0.096220 -0.193370 -0.531170 -0.179610 
